<?xml version="1.0" encoding="utf-8"?>
<!-- Generator: Adobe Illustrator 24.1.3, SVG Export Plug-In . SVG Version: 6.00 Build 0)  -->
<svg version="1.1" id="레이어_1" xmlns="http://www.w3.org/2000/svg" xmlns:xlink="http://www.w3.org/1999/xlink" x="0px"
	 y="0px" viewBox="0 0 28 28" style="enable-background:new 0 0 28 28;" xml:space="preserve">
<style type="text/css">
	.st0{fill:#1C98F5;}
</style>
<g id="Page-1">
	<g id="_x31_9_x5F_ARENA_x5F_DETAIL_x5F_NEW_x5F__x5F_용병입장_x5F_1920" transform="translate(-749.000000, -653.000000)">
		<g id="_x30_3_x5F_Overview" transform="translate(454.000000, 457.000000)">
			<g id="Group-20-Copy-3" transform="translate(274.000000, 176.000000)">
				<g id="Group-8">
					<g transform="translate(21.000000, 20.000000)">
						<g id="Stroke-1">
							<polygon class="st0" points="24.3,22.2 15.5,22.2 14.2,19.6 6.3,19.6 6.3,18.6 14.8,18.6 16.1,21.2 23.3,21.2 23.3,10.3 
								15.5,10.3 14.2,7.7 6.3,7.7 6.3,6.7 14.8,6.7 16.1,9.3 24.3,9.3 							"/>
						</g>
						<g id="Stroke-3">
							<path class="st0" d="M5.8,5.8c-1.2,0-2.1-1-2.1-2.1c0-1.2,1-2.1,2.1-2.1C7,1.5,8,2.5,8,3.6C8,4.8,7,5.8,5.8,5.8z M5.8,2.5
								C5.2,2.5,4.7,3,4.7,3.6s0.5,1.1,1.1,1.1C6.5,4.8,7,4.2,7,3.6S6.5,2.5,5.8,2.5z"/>
						</g>
						<g id="Group-7" transform="translate(1.000000, 3.859200)">
							<g id="Clip-6">
							</g>
							<g id="Stroke-5">
								<rect x="4.3" y="1.7" class="st0" width="1" height="20.8"/>
							</g>
						</g>
					</g>
				</g>
			</g>
		</g>
	</g>
</g>
</svg>
