<?xml version="1.0" encoding="utf-8"?>
<!-- Generator: Adobe Illustrator 24.1.3, SVG Export Plug-In . SVG Version: 6.00 Build 0)  -->
<svg version="1.1" id="레이어_1" xmlns="http://www.w3.org/2000/svg" xmlns:xlink="http://www.w3.org/1999/xlink" x="0px"
	 y="0px" viewBox="0 0 28 28" style="enable-background:new 0 0 28 28;" xml:space="preserve">
<style type="text/css">
	.st0{fill:#1C98F5;}
</style>
<g id="Page-1">
	<g id="_x31_9_x5F_ARENA_x5F_DETAIL_x5F_NEW_x5F__x5F_용병입장_x5F_1920" transform="translate(-472.000000, -478.000000)">
		<g id="_x30_3_x5F_Overview" transform="translate(454.000000, 457.000000)">
			<g id="Group-20">
				<g id="icon">
					<g transform="translate(18.000000, 21.000000)">
						<g id="Stroke-1">
							<path class="st0" d="M14,27.5c-7.5,0-13.5-6-13.5-13.5S6.5,0.5,14,0.5s13.5,6,13.5,13.5S21.5,27.5,14,27.5z M14,1.5
								C7.1,1.5,1.5,7.1,1.5,14S7.1,26.5,14,26.5S26.5,20.9,26.5,14S20.9,1.5,14,1.5z"/>
						</g>
						<g id="Stroke-3">
							<polygon class="st0" points="18.9,19.5 13.1,15.1 13.1,7 14.1,7 14.1,14.6 19.5,18.7 							"/>
						</g>
					</g>
				</g>
			</g>
		</g>
	</g>
</g>
</svg>
