<?xml version="1.0" encoding="utf-8"?>
<!-- Generator: Adobe Illustrator 24.1.3, SVG Export Plug-In . SVG Version: 6.00 Build 0)  -->
<svg version="1.1" id="레이어_1" xmlns="http://www.w3.org/2000/svg" xmlns:xlink="http://www.w3.org/1999/xlink" x="0px"
	 y="0px" viewBox="0 0 28 28" style="enable-background:new 0 0 28 28;" xml:space="preserve">
<style type="text/css">
	.st0{fill:#1C98F5;}
</style>
<g id="_x31_9_x5F_ARENA_x5F_DETAIL_x5F_NEW_x5F__x5F_용병입장_x5F_1920" transform="translate(-473.000000, -655.000000)">
	<g id="_x30_3_x5F_Overview" transform="translate(454.000000, 457.000000)">
		<g id="Group-20-Copy-2" transform="translate(0.000000, 176.000000)">
			<g id="Group-9">
				<g transform="translate(19.000000, 22.000000)">
					<g id="Stroke-1">
						<rect x="22.2" y="8.6" class="st0" width="1" height="8.9"/>
					</g>
					<g id="Group-8" transform="translate(0.000000, 0.525600)">
						<g id="Stroke-2">
							<rect x="18.2" y="12" class="st0" width="8.9" height="1"/>
						</g>
						<g id="Stroke-4">
							<path class="st0" d="M21.7,24.7H0.9v-3.2c0-4.2,7.4-5.9,10.4-5.9s10.4,1.7,10.4,5.9C21.7,21.5,21.7,24.7,21.7,24.7z
								 M1.9,23.7h18.8v-2.2c0-3.2-6.2-4.9-9.4-4.9s-9.4,1.7-9.4,4.9C1.9,21.5,1.9,23.7,1.9,23.7z"/>
						</g>
						<g id="Stroke-6">
							<path class="st0" d="M11.3,14c-3.2,0-5.9-2.6-5.9-5.9c0-3.2,2.6-5.9,5.9-5.9c3.2,0,5.9,2.6,5.9,5.9
								C17.2,11.3,14.6,14,11.3,14z M11.3,3.2c-2.7,0-4.9,2.2-4.9,4.9S8.6,13,11.3,13s4.9-2.2,4.9-4.9S14,3.2,11.3,3.2z"/>
						</g>
					</g>
				</g>
			</g>
		</g>
	</g>
</g>
</svg>
