<?xml version="1.0" encoding="utf-8"?>
<!-- Generator: Adobe Illustrator 24.1.3, SVG Export Plug-In . SVG Version: 6.00 Build 0)  -->
<svg version="1.1" id="레이어_1" xmlns="http://www.w3.org/2000/svg" xmlns:xlink="http://www.w3.org/1999/xlink" x="0px"
	 y="0px" viewBox="0 0 28 28" style="enable-background:new 0 0 28 28;" xml:space="preserve">
<style type="text/css">
	.st0{fill:#1C98F5;}
</style>
<g id="Page-1">
	<g id="_x31_9_x5F_ARENA_x5F_DETAIL_x5F_NEW_x5F__x5F_용병입장_x5F_1920" transform="translate(-747.000000, -479.000000)">
		<g id="_x30_3_x5F_Overview" transform="translate(454.000000, 457.000000)">
			<g id="Group-20-Copy" transform="translate(274.000000, 0.000000)">
				<g id="Group-7">
					<g transform="translate(19.000000, 22.000000)">
						<g id="Stroke-1">
							<path class="st0" d="M21.2,26.6H6.8v-3.7h5.4v-3.3c-2.1-0.5-3.8-2-4.7-3.9C4,15.1,1.4,12.1,1.4,8.6V7.3
								c0-1.8,1.4-3.2,3.2-3.2h2.2V1.4h14.5v2.7h2.2c1.8,0,3.2,1.4,3.2,3.2v1.3c0,3.5-2.6,6.5-6.1,7.1c-0.9,2-2.6,3.4-4.7,3.9v3.3
								h5.4v3.7H21.2z M7.8,25.6h12.5v-1.7h-5.4v-5.1l0.4-0.1c2-0.4,3.7-1.8,4.5-3.7l0.1-0.3h0.3c3.1-0.4,5.5-3,5.5-6.2V7.3
								c0-1.2-1-2.2-2.2-2.2h-3.2V2.4H7.8v2.7H4.6c-1.2,0-2.2,1-2.2,2.2v1.3c0,3.1,2.4,5.8,5.5,6.2h0.3l0.1,0.3
								c0.8,1.9,2.5,3.3,4.5,3.7l0.4,0.1V24H7.8V25.6z"/>
						</g>
						<g id="Stroke-3">
							<path class="st0" d="M7.7,13.1l-0.6-0.2c-1.8-0.6-3-2.3-3-4.2V6.8h3.6V13.1z M5,7.7v0.9c0,1.3,0.7,2.5,1.8,3.1v-4
								C6.8,7.7,5,7.7,5,7.7z"/>
						</g>
						<g id="Stroke-5">
							<path class="st0" d="M20.3,13V6.8h3.6v1.8c0,1.9-1.2,3.6-3,4.2L20.3,13z M21.2,7.7v4c1.1-0.6,1.8-1.8,1.8-3.1V7.7H21.2z"/>
						</g>
					</g>
				</g>
			</g>
		</g>
	</g>
</g>
</svg>
